<mxfile host="app.diagrams.net" modified="2021-04-12T17:23:33.399Z" agent="5.0 (Windows NT 10.0; Win64; x64) AppleWebKit/537.36 (KHTML, like Gecko) Chrome/89.0.4389.114 Safari/537.36" etag="CVC6-EMzqXlh3hWtQk5A" version="14.5.10" type="github">
  <diagram id="JPVd6EuIQZtyIMJ-QqCy" name="Page-1">
    <mxGraphModel dx="1185" dy="638" grid="1" gridSize="10" guides="1" tooltips="1" connect="1" arrows="1" fold="1" page="1" pageScale="1" pageWidth="827" pageHeight="1169" math="0" shadow="0">
      <root>
        <mxCell id="0" />
        <mxCell id="1" parent="0" />
        <mxCell id="bxCqyrIwHhbLebeMBAZf-1" value="Moveo Robotic Arm" style="whiteSpace=wrap;html=1;aspect=fixed;" vertex="1" parent="1">
          <mxGeometry x="300" y="240" width="210" height="210" as="geometry" />
        </mxCell>
        <mxCell id="bxCqyrIwHhbLebeMBAZf-10" style="edgeStyle=orthogonalEdgeStyle;rounded=0;orthogonalLoop=1;jettySize=auto;html=1;exitX=0.5;exitY=0.5;exitDx=0;exitDy=0;exitPerimeter=0;entryX=0.5;entryY=0;entryDx=0;entryDy=0;entryPerimeter=0;endArrow=block;endFill=0;" edge="1" parent="1" source="bxCqyrIwHhbLebeMBAZf-2" target="bxCqyrIwHhbLebeMBAZf-7">
          <mxGeometry relative="1" as="geometry" />
        </mxCell>
        <mxCell id="bxCqyrIwHhbLebeMBAZf-2" value="Operator" style="shape=umlActor;verticalLabelPosition=bottom;verticalAlign=top;html=1;outlineConnect=0;" vertex="1" parent="1">
          <mxGeometry x="250" y="20" width="30" height="60" as="geometry" />
        </mxCell>
        <mxCell id="bxCqyrIwHhbLebeMBAZf-3" value="Maintenance&lt;br&gt;technician" style="shape=umlActor;verticalLabelPosition=bottom;verticalAlign=top;html=1;outlineConnect=0;" vertex="1" parent="1">
          <mxGeometry x="520" y="20" width="30" height="60" as="geometry" />
        </mxCell>
        <mxCell id="bxCqyrIwHhbLebeMBAZf-8" style="edgeStyle=orthogonalEdgeStyle;rounded=0;orthogonalLoop=1;jettySize=auto;html=1;" edge="1" parent="1" target="bxCqyrIwHhbLebeMBAZf-1">
          <mxGeometry relative="1" as="geometry">
            <mxPoint x="405" y="160" as="sourcePoint" />
          </mxGeometry>
        </mxCell>
        <mxCell id="bxCqyrIwHhbLebeMBAZf-7" value="Human&lt;br&gt;interactors" style="shape=umlActor;verticalLabelPosition=bottom;verticalAlign=top;html=1;outlineConnect=0;" vertex="1" parent="1">
          <mxGeometry x="390" y="100" width="30" height="60" as="geometry" />
        </mxCell>
        <mxCell id="bxCqyrIwHhbLebeMBAZf-11" style="edgeStyle=orthogonalEdgeStyle;rounded=0;orthogonalLoop=1;jettySize=auto;html=1;exitX=0.5;exitY=0.5;exitDx=0;exitDy=0;exitPerimeter=0;endArrow=block;endFill=0;entryX=0.5;entryY=0;entryDx=0;entryDy=0;entryPerimeter=0;" edge="1" parent="1" source="bxCqyrIwHhbLebeMBAZf-3" target="bxCqyrIwHhbLebeMBAZf-7">
          <mxGeometry relative="1" as="geometry">
            <mxPoint x="275" y="60" as="sourcePoint" />
            <mxPoint x="400" y="100" as="targetPoint" />
          </mxGeometry>
        </mxCell>
        <mxCell id="bxCqyrIwHhbLebeMBAZf-16" value="Object" style="whiteSpace=wrap;html=1;aspect=fixed;" vertex="1" parent="1">
          <mxGeometry x="140" y="305" width="80" height="80" as="geometry" />
        </mxCell>
        <mxCell id="bxCqyrIwHhbLebeMBAZf-17" value="" style="endArrow=none;html=1;exitX=1;exitY=0.5;exitDx=0;exitDy=0;entryX=0;entryY=0.5;entryDx=0;entryDy=0;" edge="1" parent="1" source="bxCqyrIwHhbLebeMBAZf-16" target="bxCqyrIwHhbLebeMBAZf-1">
          <mxGeometry width="50" height="50" relative="1" as="geometry">
            <mxPoint x="360" y="330" as="sourcePoint" />
            <mxPoint x="410" y="280" as="targetPoint" />
          </mxGeometry>
        </mxCell>
      </root>
    </mxGraphModel>
  </diagram>
</mxfile>
